<svg xmlns="http://www.w3.org/2000/svg" x="0px" y="0px" viewBox="0 0 859.2 1754" xml:space="preserve">
	<path class="back-shape frame-1" d="M734.9,0H127C60.7,0,7,53.2,7,118.9v1516.2c0,65.7,53.7,118.9,120,118.9h608c66.3,0,120-53.2,120-118.9V118.9
		C854.9,53.2,801.2,0,734.9,0z M843.3,1631c0,61.6-50.4,111.5-112.5,111.5H131.2c-62.2,0-112.5-49.9-112.5-111.5V123
		C18.6,61.5,69,11.5,131.2,11.5h599.6c62.2,0,112.5,49.9,112.5,111.5V1631z"/>
	<path class="back-shape frame-2" fill="#1A1A1A" d="M730.7,11.5H131.2C69,11.5,18.6,61.5,18.6,123V1631c0,61.6,50.4,111.5,112.5,111.5h599.6
		c62.2,0,112.5-49.9,112.5-111.5V123C843.3,61.5,792.9,11.5,730.7,11.5z M837.5,1627.6c0,60.3-49.3,109.1-110.1,109.1H134.6
		c-60.8,0-110.1-48.8-110.1-109.1V126.4c0-60.3,49.3-109.1,110.1-109.1h592.8c60.8,0,110.1,48.8,110.1,109.1V1627.6z"/>
	<path class="back-shape frame-3" d="M730.7,1743H131.2c-62.4,0-113.1-50.3-113.1-112.1V123C18.1,61.2,68.8,11,131.2,11h599.6
		c62.4,0,113.1,50.3,113.1,112.1V1631C843.9,1692.8,793.1,1743,730.7,1743z M131.2,12.1c-61.7,0-112,49.8-112,110.9V1631
		c0,61.2,50.2,110.9,112,110.9h599.6c61.7,0,112-49.8,112-110.9V123c0-61.2-50.2-110.9-112-110.9L131.2,12.1z M727.3,1737.3H134.6
		c-61,0-110.7-49.2-110.7-109.7V126.4c0-60.5,49.7-109.7,110.7-109.7h592.8c61,0,110.7,49.2,110.7,109.7v1501.2
		C838,1688.1,788.4,1737.3,727.3,1737.3z M134.6,17.9C74.2,17.9,25,66.6,25,126.4v1501.2c0,59.8,49.1,108.5,109.5,108.5h592.8
		c60.4,0,109.5-48.7,109.5-108.5V126.4c0-59.8-49.1-108.5-109.5-108.5L134.6,17.9z"/>
	<rect class="side-shape button-on" x="854.9" y="366.9" fill="#000000" width="3.7" height="187.6"/>
	<rect class="side-shape button-sound" x="1.2" y="217.6" fill="#000000" width="6" height="68.4"/>
	<rect class="side-shape button-plus" x="1.2" y="366.9" fill="#000000" width="6" height="126.1"/>
	<rect class="side-shape button-minus" x="1.2" y="525.1" fill="#000000" width="6" height="126.1"/>
	<path class="overlay-shape speaker" d="M472.9,1750.9H389c-1.2-0.1-2.5,0.1-3.7,0.5l-3.7,1.6c-0.7,0.5,1.1,0.9,3.7,0.9h91.3c2.5,0,4.4-0.5,3.7-0.9
		l-3.7-1.6C475.4,1751,474.2,1750.8,472.9,1750.9z"/>
	<path class="side-shape notch" d="M505.9,97.3H353.1c-17.1,0.1-31-13.7-31.1-30.8l0,0c0.1-17.1,14-30.9,31.1-30.8h152.7
		c17.1-0.1,31,13.7,31.1,30.8l0,0C536.9,83.5,523,97.3,505.9,97.3C505.9,97.3,505.9,97.3,505.9,97.3z"/>
	<ellipse class="overlay-shape camera" fill="#fff" cx="500.3" cy="66.4" rx="10.6" ry="10.5"/>
</svg>
